<svg xmlns="http://www.w3.org/2000/svg" xmlns:xlink="http://www.w3.org/1999/xlink" zoomAndPan="magnify" preserveAspectRatio="xMidYMid meet" version="1.0" viewBox="70.74 11.24 233.77 299.89"><defs><g/><clipPath id="025fba6ed1"><path d="M 268.652344 90.96875 L 297 90.96875 L 297 101 L 268.652344 101 Z M 268.652344 90.96875 " clip-rule="nonzero"/></clipPath><clipPath id="f6a736bf8e"><path d="M 268.652344 117 L 297 117 L 297 135 L 268.652344 135 Z M 268.652344 117 " clip-rule="nonzero"/></clipPath><clipPath id="b8a3d1a8f8"><path d="M 268.652344 130 L 297 130 L 297 151 L 268.652344 151 Z M 268.652344 130 " clip-rule="nonzero"/></clipPath><clipPath id="86e135db92"><path d="M 268.652344 98 L 297 98 L 297 113 L 268.652344 113 Z M 268.652344 98 " clip-rule="nonzero"/></clipPath><clipPath id="bf12a31018"><path d="M 291 126 L 302.132812 126 L 302.132812 138 L 291 138 Z M 291 126 " clip-rule="nonzero"/></clipPath><clipPath id="7f1a5f976e"><path d="M 291 142 L 302.132812 142 L 302.132812 154 L 291 154 Z M 291 142 " clip-rule="nonzero"/></clipPath><clipPath id="a676ad6b28"><path d="M 291 95 L 302.132812 95 L 302.132812 106 L 291 106 Z M 291 95 " clip-rule="nonzero"/></clipPath><clipPath id="c33649b3c3"><path d="M 77 90.96875 L 106.195312 90.96875 L 106.195312 101 L 77 101 Z M 77 90.96875 " clip-rule="nonzero"/></clipPath><clipPath id="f732777c7b"><path d="M 77 117 L 106.195312 117 L 106.195312 135 L 77 135 Z M 77 117 " clip-rule="nonzero"/></clipPath><clipPath id="4d98c1f79f"><path d="M 77 130 L 106.195312 130 L 106.195312 151 L 77 151 Z M 77 130 " clip-rule="nonzero"/></clipPath><clipPath id="ce45bcb239"><path d="M 77 98 L 106.195312 98 L 106.195312 113 L 77 113 Z M 77 98 " clip-rule="nonzero"/></clipPath><clipPath id="40f4f2e1d1"><path d="M 72.445312 126 L 84 126 L 84 138 L 72.445312 138 Z M 72.445312 126 " clip-rule="nonzero"/></clipPath><clipPath id="296c21b861"><path d="M 72.445312 142 L 84 142 L 84 154 L 72.445312 154 Z M 72.445312 142 " clip-rule="nonzero"/></clipPath><clipPath id="e5ce8c960b"><path d="M 72.445312 95 L 84 95 L 84 106 L 72.445312 106 Z M 72.445312 95 " clip-rule="nonzero"/></clipPath><clipPath id="913a69dca6"><path d="M 83.039062 11.261719 L 292.289062 11.261719 L 292.289062 78 L 83.039062 78 Z M 83.039062 11.261719 " clip-rule="nonzero"/></clipPath></defs><g clip-path="url(#025fba6ed1)"><path fill="#333594" d="M 258.273438 100.921875 L 271.171875 100.921875 C 271.449219 100.921875 271.671875 100.699219 271.671875 100.421875 L 271.671875 83.035156 C 271.671875 82.757812 271.898438 82.53125 272.175781 82.53125 L 296.226562 82.53125 C 296.503906 82.53125 296.726562 82.308594 296.726562 82.03125 L 296.726562 78.800781 C 296.726562 78.523438 296.503906 78.296875 296.226562 78.296875 L 267.941406 78.296875 C 267.664062 78.296875 267.4375 78.523438 267.4375 78.800781 L 267.4375 96.1875 C 267.4375 96.464844 267.214844 96.6875 266.9375 96.6875 L 256.125 96.6875 C 256.933594 98.042969 257.652344 99.457031 258.273438 100.921875 " fill-opacity="1" fill-rule="nonzero"/></g><g clip-path="url(#f6a736bf8e)"><path fill="#333594" d="M 277.21875 134.039062 L 296.226562 134.039062 C 296.503906 134.039062 296.726562 133.8125 296.726562 133.535156 L 296.726562 130.304688 C 296.726562 130.027344 296.503906 129.804688 296.226562 129.804688 L 281.453125 129.804688 C 281.175781 129.804688 280.949219 129.578125 280.949219 129.304688 L 280.949219 118.230469 C 280.949219 117.953125 280.726562 117.730469 280.449219 117.730469 L 260.863281 117.730469 C 260.730469 119.167969 260.507812 120.582031 260.203125 121.964844 L 276.214844 121.964844 C 276.492188 121.964844 276.714844 122.1875 276.714844 122.464844 L 276.714844 133.535156 C 276.714844 133.8125 276.941406 134.039062 277.21875 134.039062 " fill-opacity="1" fill-rule="nonzero"/></g><g clip-path="url(#b8a3d1a8f8)"><path fill="#333594" d="M 264.046875 150.585938 L 296.226562 150.585938 C 296.503906 150.585938 296.726562 150.359375 296.726562 150.082031 L 296.726562 146.851562 C 296.726562 146.578125 296.503906 146.351562 296.226562 146.351562 L 268.28125 146.351562 C 268.003906 146.351562 267.777344 146.128906 267.777344 145.851562 L 267.777344 130.988281 C 267.777344 130.710938 267.554688 130.488281 267.277344 130.488281 L 257.101562 130.488281 C 256.332031 131.964844 255.460938 133.378906 254.496094 134.722656 L 263.042969 134.722656 C 263.320312 134.722656 263.542969 134.945312 263.542969 135.222656 L 263.542969 150.082031 C 263.542969 150.359375 263.769531 150.585938 264.046875 150.585938 " fill-opacity="1" fill-rule="nonzero"/></g><g clip-path="url(#86e135db92)"><path fill="#333594" d="M 260.945312 112.230469 L 280.449219 112.230469 C 280.726562 112.230469 280.949219 112.003906 280.949219 111.730469 L 280.949219 103.0625 C 280.949219 102.785156 281.175781 102.558594 281.453125 102.558594 L 296.226562 102.558594 C 296.503906 102.558594 296.726562 102.335938 296.726562 102.058594 L 296.726562 98.828125 C 296.726562 98.550781 296.503906 98.324219 296.226562 98.324219 L 277.21875 98.324219 C 276.941406 98.324219 276.714844 98.550781 276.714844 98.828125 L 276.714844 107.496094 C 276.714844 107.773438 276.492188 107.996094 276.214844 107.996094 L 260.414062 107.996094 C 260.675781 109.378906 260.855469 110.792969 260.945312 112.230469 " fill-opacity="1" fill-rule="nonzero"/></g><g clip-path="url(#bf12a31018)"><path fill="#acd8f3" d="M 291.320312 131.734375 C 291.320312 128.75 293.742188 126.328125 296.726562 126.328125 C 299.710938 126.328125 302.132812 128.75 302.132812 131.734375 C 302.132812 134.71875 299.710938 137.140625 296.726562 137.140625 C 293.742188 137.140625 291.320312 134.71875 291.320312 131.734375 " fill-opacity="1" fill-rule="nonzero"/></g><g clip-path="url(#7f1a5f976e)"><path fill="#acd8f3" d="M 291.320312 148.34375 C 291.320312 145.359375 293.742188 142.9375 296.726562 142.9375 C 299.710938 142.9375 302.132812 145.359375 302.132812 148.34375 C 302.132812 151.332031 299.710938 153.75 296.726562 153.75 C 293.742188 153.75 291.320312 151.332031 291.320312 148.34375 " fill-opacity="1" fill-rule="nonzero"/></g><g clip-path="url(#a676ad6b28)"><path fill="#acd8f3" d="M 291.320312 100.546875 C 291.320312 97.558594 293.742188 95.140625 296.726562 95.140625 C 299.710938 95.140625 302.132812 97.558594 302.132812 100.546875 C 302.132812 103.53125 299.710938 105.949219 296.726562 105.949219 C 293.742188 105.949219 291.320312 103.53125 291.320312 100.546875 " fill-opacity="1" fill-rule="nonzero"/></g><g clip-path="url(#c33649b3c3)"><path fill="#333594" d="M 116.304688 100.921875 L 103.410156 100.921875 C 103.132812 100.921875 102.90625 100.699219 102.90625 100.421875 L 102.90625 83.035156 C 102.90625 82.757812 102.683594 82.53125 102.40625 82.53125 L 78.355469 82.53125 C 78.078125 82.53125 77.851562 82.308594 77.851562 82.03125 L 77.851562 78.800781 C 77.851562 78.523438 78.078125 78.296875 78.355469 78.296875 L 106.640625 78.296875 C 106.917969 78.296875 107.140625 78.523438 107.140625 78.800781 L 107.140625 96.1875 C 107.140625 96.464844 107.367188 96.6875 107.644531 96.6875 L 118.453125 96.6875 C 117.644531 98.042969 116.925781 99.457031 116.304688 100.921875 " fill-opacity="1" fill-rule="nonzero"/></g><g clip-path="url(#f732777c7b)"><path fill="#333594" d="M 97.363281 134.039062 L 78.355469 134.039062 C 78.078125 134.039062 77.851562 133.8125 77.851562 133.535156 L 77.851562 130.304688 C 77.851562 130.027344 78.078125 129.804688 78.355469 129.804688 L 93.128906 129.804688 C 93.40625 129.804688 93.628906 129.578125 93.628906 129.304688 L 93.628906 118.230469 C 93.628906 117.953125 93.855469 117.730469 94.132812 117.730469 L 113.714844 117.730469 C 113.847656 119.167969 114.074219 120.582031 114.378906 121.964844 L 98.363281 121.964844 C 98.089844 121.964844 97.863281 122.1875 97.863281 122.464844 L 97.863281 133.535156 C 97.863281 133.8125 97.640625 134.039062 97.363281 134.039062 " fill-opacity="1" fill-rule="nonzero"/></g><g clip-path="url(#4d98c1f79f)"><path fill="#333594" d="M 110.53125 150.585938 L 78.355469 150.585938 C 78.078125 150.585938 77.851562 150.359375 77.851562 150.082031 L 77.851562 146.851562 C 77.851562 146.578125 78.078125 146.351562 78.355469 146.351562 L 106.300781 146.351562 C 106.574219 146.351562 106.800781 146.128906 106.800781 145.851562 L 106.800781 130.988281 C 106.800781 130.710938 107.027344 130.488281 107.300781 130.488281 L 117.476562 130.488281 C 118.246094 131.964844 119.117188 133.378906 120.082031 134.722656 L 111.535156 134.722656 C 111.257812 134.722656 111.035156 134.945312 111.035156 135.222656 L 111.035156 150.082031 C 111.035156 150.359375 110.808594 150.585938 110.53125 150.585938 " fill-opacity="1" fill-rule="nonzero"/></g><g clip-path="url(#ce45bcb239)"><path fill="#333594" d="M 113.632812 112.230469 L 94.132812 112.230469 C 93.855469 112.230469 93.628906 112.003906 93.628906 111.730469 L 93.628906 103.0625 C 93.628906 102.785156 93.40625 102.558594 93.128906 102.558594 L 78.355469 102.558594 C 78.078125 102.558594 77.851562 102.335938 77.851562 102.058594 L 77.851562 98.828125 C 77.851562 98.550781 78.078125 98.324219 78.355469 98.324219 L 97.363281 98.324219 C 97.640625 98.324219 97.863281 98.550781 97.863281 98.828125 L 97.863281 107.496094 C 97.863281 107.773438 98.089844 107.996094 98.363281 107.996094 L 114.167969 107.996094 C 113.902344 109.378906 113.722656 110.792969 113.632812 112.230469 " fill-opacity="1" fill-rule="nonzero"/></g><g clip-path="url(#40f4f2e1d1)"><path fill="#acd8f3" d="M 83.257812 131.734375 C 83.257812 128.75 80.835938 126.328125 77.851562 126.328125 C 74.867188 126.328125 72.445312 128.75 72.445312 131.734375 C 72.445312 134.71875 74.867188 137.140625 77.851562 137.140625 C 80.835938 137.140625 83.257812 134.71875 83.257812 131.734375 " fill-opacity="1" fill-rule="nonzero"/></g><g clip-path="url(#296c21b861)"><path fill="#acd8f3" d="M 83.257812 148.34375 C 83.257812 145.359375 80.835938 142.9375 77.851562 142.9375 C 74.867188 142.9375 72.445312 145.359375 72.445312 148.34375 C 72.445312 151.332031 74.867188 153.75 77.851562 153.75 C 80.835938 153.75 83.257812 151.332031 83.257812 148.34375 " fill-opacity="1" fill-rule="nonzero"/></g><g clip-path="url(#e5ce8c960b)"><path fill="#acd8f3" d="M 83.257812 100.546875 C 83.257812 97.558594 80.835938 95.140625 77.851562 95.140625 C 74.867188 95.140625 72.445312 97.558594 72.445312 100.546875 C 72.445312 103.53125 74.867188 105.949219 77.851562 105.949219 C 80.835938 105.949219 83.257812 103.53125 83.257812 100.546875 " fill-opacity="1" fill-rule="nonzero"/></g><path fill="#333594" d="M 102.070312 82.566406 L 130.59375 82.566406 L 130.59375 187.152344 L 102.070312 187.152344 Z M 102.070312 82.566406 " fill-opacity="1" fill-rule="nonzero"/><path fill="#333594" d="M 149.609375 82.566406 L 178.132812 82.566406 L 178.132812 187.152344 L 149.609375 187.152344 Z M 149.609375 82.566406 " fill-opacity="1" fill-rule="nonzero"/><path fill="#333594" d="M 197.148438 82.566406 L 225.667969 82.566406 L 225.667969 187.152344 L 197.148438 187.152344 Z M 197.148438 82.566406 " fill-opacity="1" fill-rule="nonzero"/><path fill="#333594" d="M 244.683594 82.566406 L 273.207031 82.566406 L 273.207031 187.152344 L 244.683594 187.152344 Z M 244.683594 82.566406 " fill-opacity="1" fill-rule="nonzero"/><path fill="#acd8f3" d="M 102.070312 158.628906 L 130.59375 158.628906 L 130.59375 187.152344 L 102.070312 187.152344 Z M 102.070312 158.628906 " fill-opacity="1" fill-rule="nonzero"/><path fill="#acd8f3" d="M 149.609375 158.628906 L 178.132812 158.628906 L 178.132812 187.152344 L 149.609375 187.152344 Z M 149.609375 158.628906 " fill-opacity="1" fill-rule="nonzero"/><path fill="#acd8f3" d="M 197.148438 158.628906 L 225.667969 158.628906 L 225.667969 187.152344 L 197.148438 187.152344 Z M 197.148438 158.628906 " fill-opacity="1" fill-rule="nonzero"/><path fill="#acd8f3" d="M 244.683594 158.628906 L 273.207031 158.628906 L 273.207031 187.152344 L 244.683594 187.152344 Z M 244.683594 158.628906 " fill-opacity="1" fill-rule="nonzero"/><path fill="#333594" d="M 97.316406 54.046875 L 97.316406 87.320312 C 97.316406 87.632812 97.347656 87.941406 97.40625 88.25 C 97.46875 88.554688 97.558594 88.851562 97.679688 89.140625 C 97.796875 89.429688 97.945312 89.703125 98.117188 89.960938 C 98.292969 90.222656 98.488281 90.460938 98.710938 90.683594 C 98.929688 90.902344 99.167969 91.101562 99.429688 91.273438 C 99.6875 91.449219 99.964844 91.59375 100.25 91.714844 C 100.539062 91.832031 100.835938 91.921875 101.144531 91.984375 C 101.449219 92.046875 101.757812 92.074219 102.070312 92.074219 L 130.59375 92.074219 C 130.90625 92.074219 131.214844 92.046875 131.519531 91.984375 C 131.828125 91.921875 132.125 91.832031 132.414062 91.714844 C 132.699219 91.59375 132.976562 91.449219 133.234375 91.273438 C 133.492188 91.101562 133.734375 90.902344 133.953125 90.683594 C 134.175781 90.460938 134.371094 90.222656 134.546875 89.960938 C 134.71875 89.703125 134.867188 89.429688 134.984375 89.140625 C 135.105469 88.851562 135.195312 88.554688 135.253906 88.25 C 135.316406 87.941406 135.347656 87.632812 135.347656 87.320312 L 135.347656 54.046875 Z M 97.316406 54.046875 " fill-opacity="1" fill-rule="nonzero"/><path fill="#333594" d="M 144.855469 54.046875 L 144.855469 87.320312 C 144.855469 87.632812 144.886719 87.941406 144.945312 88.25 C 145.007812 88.554688 145.097656 88.851562 145.214844 89.140625 C 145.335938 89.429688 145.484375 89.703125 145.65625 89.960938 C 145.828125 90.222656 146.027344 90.460938 146.246094 90.683594 C 146.46875 90.902344 146.707031 91.101562 146.96875 91.273438 C 147.226562 91.449219 147.5 91.59375 147.789062 91.714844 C 148.078125 91.832031 148.375 91.921875 148.679688 91.984375 C 148.988281 92.046875 149.296875 92.074219 149.609375 92.074219 L 178.132812 92.074219 C 178.445312 92.074219 178.753906 92.046875 179.058594 91.984375 C 179.363281 91.921875 179.664062 91.832031 179.949219 91.714844 C 180.238281 91.59375 180.511719 91.449219 180.773438 91.273438 C 181.03125 91.101562 181.273438 90.902344 181.492188 90.683594 C 181.714844 90.460938 181.910156 90.222656 182.085938 89.960938 C 182.257812 89.703125 182.402344 89.429688 182.523438 89.140625 C 182.644531 88.851562 182.734375 88.554688 182.792969 88.25 C 182.855469 87.941406 182.886719 87.632812 182.886719 87.320312 L 182.886719 54.046875 Z M 144.855469 54.046875 " fill-opacity="1" fill-rule="nonzero"/><path fill="#333594" d="M 192.394531 54.046875 L 192.394531 87.320312 C 192.394531 87.632812 192.421875 87.941406 192.484375 88.25 C 192.546875 88.554688 192.636719 88.851562 192.753906 89.140625 C 192.875 89.429688 193.019531 89.703125 193.195312 89.960938 C 193.367188 90.222656 193.566406 90.460938 193.785156 90.683594 C 194.007812 90.902344 194.246094 91.101562 194.503906 91.273438 C 194.765625 91.449219 195.039062 91.59375 195.328125 91.714844 C 195.617188 91.832031 195.914062 91.921875 196.21875 91.984375 C 196.527344 92.046875 196.835938 92.074219 197.148438 92.074219 L 225.667969 92.074219 C 225.980469 92.074219 226.289062 92.046875 226.597656 91.984375 C 226.902344 91.921875 227.199219 91.832031 227.488281 91.714844 C 227.777344 91.59375 228.050781 91.449219 228.3125 91.273438 C 228.570312 91.101562 228.808594 90.902344 229.03125 90.683594 C 229.25 90.460938 229.449219 90.222656 229.621094 89.960938 C 229.796875 89.703125 229.941406 89.429688 230.0625 89.140625 C 230.179688 88.851562 230.269531 88.554688 230.332031 88.25 C 230.394531 87.941406 230.421875 87.632812 230.421875 87.320312 L 230.421875 54.046875 Z M 192.394531 54.046875 " fill-opacity="1" fill-rule="nonzero"/><path fill="#333594" d="M 239.929688 54.046875 L 239.929688 87.320312 C 239.929688 87.632812 239.960938 87.941406 240.023438 88.25 C 240.082031 88.554688 240.171875 88.851562 240.292969 89.140625 C 240.414062 89.429688 240.558594 89.703125 240.730469 89.960938 C 240.90625 90.222656 241.101562 90.460938 241.324219 90.683594 C 241.542969 90.902344 241.785156 91.101562 242.042969 91.273438 C 242.304688 91.449219 242.578125 91.59375 242.867188 91.714844 C 243.152344 91.832031 243.453125 91.921875 243.757812 91.984375 C 244.0625 92.046875 244.371094 92.074219 244.683594 92.074219 L 273.207031 92.074219 C 273.519531 92.074219 273.828125 92.046875 274.136719 91.984375 C 274.441406 91.921875 274.738281 91.832031 275.027344 91.714844 C 275.316406 91.59375 275.589844 91.449219 275.847656 91.273438 C 276.109375 91.101562 276.347656 90.902344 276.570312 90.683594 C 276.789062 90.460938 276.988281 90.222656 277.160156 89.960938 C 277.332031 89.703125 277.480469 89.429688 277.601562 89.140625 C 277.71875 88.851562 277.808594 88.554688 277.871094 88.25 C 277.929688 87.941406 277.960938 87.632812 277.960938 87.320312 L 277.960938 54.046875 Z M 239.929688 54.046875 " fill-opacity="1" fill-rule="nonzero"/><path fill="#333594" d="M 97.316406 172.566406 L 277.960938 172.566406 C 278.585938 172.566406 279.203125 172.628906 279.816406 172.75 C 280.429688 172.871094 281.023438 173.050781 281.601562 173.289062 C 282.175781 173.53125 282.722656 173.824219 283.242188 174.167969 C 283.761719 174.515625 284.242188 174.910156 284.683594 175.351562 C 285.125 175.792969 285.519531 176.273438 285.867188 176.792969 C 286.214844 177.3125 286.507812 177.859375 286.746094 178.4375 C 286.984375 179.011719 287.164062 179.609375 287.285156 180.21875 C 287.410156 180.832031 287.46875 181.449219 287.46875 182.074219 L 287.46875 196.335938 C 287.46875 196.960938 287.410156 197.578125 287.285156 198.191406 C 287.164062 198.804688 286.984375 199.398438 286.746094 199.972656 C 286.507812 200.550781 286.214844 201.097656 285.867188 201.617188 C 285.519531 202.136719 285.125 202.617188 284.683594 203.058594 C 284.242188 203.5 283.761719 203.894531 283.242188 204.242188 C 282.722656 204.589844 282.175781 204.882812 281.601562 205.121094 C 281.023438 205.359375 280.429688 205.539062 279.816406 205.660156 C 279.203125 205.78125 278.585938 205.84375 277.960938 205.84375 L 97.316406 205.84375 C 96.691406 205.84375 96.074219 205.78125 95.460938 205.660156 C 94.847656 205.539062 94.253906 205.359375 93.679688 205.121094 C 93.101562 204.882812 92.554688 204.589844 92.035156 204.242188 C 91.515625 203.894531 91.035156 203.5 90.59375 203.058594 C 90.152344 202.617188 89.757812 202.136719 89.410156 201.617188 C 89.066406 201.097656 88.773438 200.550781 88.53125 199.972656 C 88.292969 199.398438 88.113281 198.804688 87.992188 198.191406 C 87.871094 197.578125 87.808594 196.960938 87.808594 196.335938 L 87.808594 182.074219 C 87.808594 181.449219 87.871094 180.832031 87.992188 180.21875 C 88.113281 179.609375 88.292969 179.011719 88.53125 178.4375 C 88.773438 177.859375 89.066406 177.3125 89.410156 176.792969 C 89.757812 176.273438 90.152344 175.792969 90.59375 175.351562 C 91.035156 174.910156 91.515625 174.515625 92.035156 174.167969 C 92.554688 173.824219 93.101562 173.53125 93.679688 173.289062 C 94.253906 173.050781 94.847656 172.871094 95.460938 172.75 C 96.074219 172.628906 96.691406 172.566406 97.316406 172.566406 Z M 97.316406 172.566406 " fill-opacity="1" fill-rule="nonzero"/><path fill="#acd8f3" d="M 87.808594 192.230469 L 87.808594 196.335938 C 87.808594 196.960938 87.871094 197.578125 87.992188 198.191406 C 88.113281 198.804688 88.292969 199.398438 88.53125 199.972656 C 88.773438 200.550781 89.066406 201.097656 89.410156 201.617188 C 89.757812 202.136719 90.152344 202.617188 90.59375 203.058594 C 91.035156 203.5 91.515625 203.894531 92.035156 204.242188 C 92.554688 204.589844 93.101562 204.882812 93.679688 205.121094 C 94.253906 205.359375 94.847656 205.539062 95.460938 205.660156 C 96.074219 205.78125 96.691406 205.84375 97.316406 205.84375 L 277.960938 205.84375 C 278.585938 205.84375 279.203125 205.78125 279.816406 205.660156 C 280.429688 205.539062 281.023438 205.359375 281.601562 205.121094 C 282.175781 204.882812 282.722656 204.589844 283.242188 204.242188 C 283.761719 203.894531 284.242188 203.5 284.683594 203.058594 C 285.125 202.617188 285.519531 202.136719 285.867188 201.617188 C 286.214844 201.097656 286.507812 200.550781 286.746094 199.972656 C 286.984375 199.398438 287.164062 198.804688 287.285156 198.191406 C 287.410156 197.578125 287.46875 196.960938 287.46875 196.335938 L 287.46875 192.230469 Z M 87.808594 192.230469 " fill-opacity="1" fill-rule="nonzero"/><g clip-path="url(#913a69dca6)"><path fill="#333594" d="M 285.707031 43.445312 L 190.042969 11.734375 C 188.039062 11.074219 186.035156 11.074219 184.03125 11.734375 L 89.535156 43.445312 C 88.589844 43.761719 87.71875 44.214844 86.917969 44.804688 C 86.117188 45.398438 85.425781 46.097656 84.84375 46.90625 C 84.261719 47.714844 83.820312 48.589844 83.515625 49.539062 C 83.207031 50.484375 83.054688 51.457031 83.054688 52.453125 L 83.054688 68.304688 C 83.054688 68.929688 83.117188 69.550781 83.238281 70.160156 C 83.359375 70.773438 83.539062 71.367188 83.777344 71.945312 C 84.019531 72.523438 84.3125 73.070312 84.65625 73.589844 C 85.003906 74.109375 85.398438 74.589844 85.839844 75.03125 C 86.28125 75.472656 86.761719 75.863281 87.28125 76.210938 C 87.800781 76.558594 88.347656 76.851562 88.925781 77.089844 C 89.5 77.328125 90.097656 77.507812 90.707031 77.632812 C 91.320312 77.753906 91.9375 77.8125 92.5625 77.8125 L 282.714844 77.8125 C 283.339844 77.8125 283.957031 77.753906 284.570312 77.632812 C 285.183594 77.507812 285.777344 77.328125 286.355469 77.089844 C 286.929688 76.851562 287.476562 76.558594 287.996094 76.210938 C 288.515625 75.863281 288.996094 75.472656 289.4375 75.03125 C 289.878906 74.589844 290.273438 74.109375 290.621094 73.589844 C 290.96875 73.070312 291.261719 72.523438 291.5 71.945312 C 291.738281 71.367188 291.917969 70.773438 292.039062 70.160156 C 292.160156 69.550781 292.222656 68.929688 292.222656 68.304688 L 292.222656 52.464844 C 292.222656 51.46875 292.070312 50.492188 291.761719 49.542969 C 291.453125 48.59375 291.007812 47.710938 290.421875 46.902344 C 289.835938 46.09375 289.140625 45.390625 288.335938 44.800781 C 287.53125 44.210938 286.652344 43.757812 285.707031 43.445312 Z M 285.707031 43.445312 " fill-opacity="1" fill-rule="nonzero"/></g><path fill="#acd8f3" d="M 117.355469 54.167969 L 181.054688 32.804688 C 183.007812 32.15625 185.011719 31.828125 187.070312 31.828125 C 189.125 31.828125 191.128906 32.15625 193.082031 32.804688 L 257.609375 54.195312 C 257.878906 54.285156 258.125 54.417969 258.347656 54.59375 C 258.566406 54.769531 258.75 54.976562 258.898438 55.21875 C 259.046875 55.460938 259.144531 55.71875 259.199219 55.996094 C 259.253906 56.277344 259.261719 56.554688 259.214844 56.832031 C 259.171875 57.113281 259.078125 57.375 258.9375 57.621094 C 258.800781 57.867188 258.625 58.082031 258.40625 58.265625 C 258.191406 58.449219 257.953125 58.589844 257.6875 58.6875 C 257.421875 58.785156 257.148438 58.832031 256.863281 58.832031 L 118.109375 58.832031 C 117.816406 58.847656 117.53125 58.808594 117.253906 58.71875 C 116.976562 58.625 116.726562 58.488281 116.496094 58.304688 C 116.269531 58.121094 116.082031 57.902344 115.9375 57.652344 C 115.789062 57.398438 115.691406 57.125 115.644531 56.839844 C 115.601562 56.550781 115.605469 56.261719 115.664062 55.976562 C 115.722656 55.691406 115.832031 55.421875 115.992188 55.175781 C 116.148438 54.929688 116.34375 54.722656 116.578125 54.546875 C 116.8125 54.375 117.074219 54.246094 117.355469 54.167969 Z M 117.355469 54.167969 " fill-opacity="1" fill-rule="nonzero"/><g fill="#333594" fill-opacity="1"><g transform="translate(75.691675, 248.809556)"><g><path d="M 8.265625 -6.65625 C 8.585938 -6.65625 8.890625 -6.59375 9.171875 -6.46875 C 9.460938 -6.34375 9.71875 -6.171875 9.9375 -5.953125 C 10.15625 -5.734375 10.328125 -5.476562 10.453125 -5.1875 C 10.578125 -4.894531 10.640625 -4.582031 10.640625 -4.25 C 10.640625 -3.582031 10.410156 -3.019531 9.953125 -2.5625 C 9.503906 -2.101562 8.941406 -1.875 8.265625 -1.875 C 7.921875 -1.875 7.601562 -1.9375 7.3125 -2.0625 C 7.019531 -2.195312 6.769531 -2.367188 6.5625 -2.578125 C 6.363281 -2.785156 6.195312 -3.035156 6.0625 -3.328125 C 5.9375 -3.617188 5.875 -3.925781 5.875 -4.25 C 5.875 -4.582031 5.9375 -4.894531 6.0625 -5.1875 C 6.195312 -5.476562 6.367188 -5.734375 6.578125 -5.953125 C 6.796875 -6.171875 7.046875 -6.34375 7.328125 -6.46875 C 7.617188 -6.59375 7.929688 -6.65625 8.265625 -6.65625 Z M 5.515625 -14.359375 C 6.304688 -14.242188 7.140625 -13.976562 8.015625 -13.5625 C 8.890625 -13.144531 9.738281 -12.632812 10.5625 -12.03125 C 11.382812 -11.4375 12.144531 -10.78125 12.84375 -10.0625 C 13.539062 -9.34375 14.109375 -8.632812 14.546875 -7.9375 L 14.546875 -18.953125 C 12.742188 -18.429688 11.078125 -17.78125 9.546875 -17 C 8.015625 -16.226562 6.671875 -15.347656 5.515625 -14.359375 Z M 14.546875 0 L 14.546875 -4.078125 C 14.367188 -4.566406 14.066406 -5.113281 13.640625 -5.71875 C 13.222656 -6.332031 12.71875 -6.945312 12.125 -7.5625 C 11.539062 -8.1875 10.894531 -8.785156 10.1875 -9.359375 C 9.488281 -9.941406 8.773438 -10.457031 8.046875 -10.90625 C 7.328125 -11.363281 6.609375 -11.726562 5.890625 -12 C 5.171875 -12.269531 4.507812 -12.40625 3.90625 -12.40625 C 3.78125 -12.40625 3.675781 -12.40625 3.59375 -12.40625 C 3.5 -12.40625 3.410156 -12.390625 3.328125 -12.359375 C 2.984375 -12.828125 2.671875 -13.265625 2.390625 -13.671875 C 2.109375 -14.078125 1.863281 -14.425781 1.65625 -14.71875 C 3.488281 -16.082031 5.472656 -17.335938 7.609375 -18.484375 C 9.742188 -19.640625 12.054688 -20.65625 14.546875 -21.53125 L 14.546875 -23.265625 L -0.3125 -23.265625 L -0.3125 -25.609375 L 20.484375 -25.609375 L 20.484375 -23.265625 L 16.90625 -23.265625 L 16.90625 0 Z M 14.546875 0 "/></g></g></g><g fill="#333594" fill-opacity="1"><g transform="translate(95.940444, 248.809556)"><g><path d="M -2.40625 -25.609375 L 0.875 -25.609375 C 1.101562 -25.472656 1.3125 -25.332031 1.5 -25.1875 C 1.6875 -25.039062 1.878906 -24.867188 2.078125 -24.671875 C 2.273438 -24.484375 2.488281 -24.257812 2.71875 -24 C 2.945312 -23.738281 3.207031 -23.421875 3.5 -23.046875 L 3.5 -29.140625 L 5.84375 -29.140625 L 5.84375 -25.609375 L 9.921875 -25.609375 L 9.921875 -23.265625 L 5.84375 -23.265625 L 5.84375 0 L 3.5 0 L 3.5 -19.875 C 3.207031 -20.675781 2.769531 -21.375 2.1875 -21.96875 C 1.613281 -22.570312 0.929688 -23.003906 0.140625 -23.265625 L -2.40625 -23.265625 Z M -2.40625 -25.609375 "/></g></g></g><g fill="#333594" fill-opacity="1"><g transform="translate(104.82003, 248.809556)"><g><path d="M 13.875 -23.359375 C 14.238281 -22.441406 14.664062 -21.691406 15.15625 -21.109375 C 15.644531 -20.535156 16.191406 -20.085938 16.796875 -19.765625 C 17.398438 -19.453125 18.054688 -19.238281 18.765625 -19.125 C 19.472656 -19.007812 20.226562 -18.953125 21.03125 -18.953125 C 21.5 -18.953125 22.003906 -18.960938 22.546875 -18.984375 C 23.097656 -19.015625 23.789062 -19.066406 24.625 -19.140625 L 25.765625 -17.609375 C 25.421875 -16.597656 25.109375 -15.65625 24.828125 -14.78125 C 24.554688 -13.90625 24.320312 -13.070312 24.125 -12.28125 C 23.9375 -11.488281 23.789062 -10.71875 23.6875 -9.96875 C 23.582031 -9.21875 23.53125 -8.460938 23.53125 -7.703125 C 23.53125 -6.671875 23.628906 -5.582031 23.828125 -4.4375 C 24.023438 -3.300781 24.367188 -2.007812 24.859375 -0.5625 L 22.640625 0.140625 C 22.179688 -1.359375 21.820312 -2.800781 21.5625 -4.1875 C 21.300781 -5.582031 21.171875 -6.957031 21.171875 -8.3125 C 21.171875 -9.71875 21.285156 -11.078125 21.515625 -12.390625 C 21.742188 -13.703125 22.164062 -15.109375 22.78125 -16.609375 C 21.519531 -16.609375 20.410156 -16.640625 19.453125 -16.703125 C 18.503906 -16.773438 17.679688 -16.890625 16.984375 -17.046875 C 16.296875 -17.210938 15.695312 -17.425781 15.1875 -17.6875 C 14.6875 -17.945312 14.242188 -18.265625 13.859375 -18.640625 C 13.484375 -19.023438 13.140625 -19.472656 12.828125 -19.984375 C 12.523438 -20.492188 12.207031 -21.085938 11.875 -21.765625 C 11.40625 -21.546875 10.988281 -21.242188 10.625 -20.859375 C 10.269531 -20.472656 9.960938 -20.050781 9.703125 -19.59375 C 9.453125 -19.132812 9.257812 -18.644531 9.125 -18.125 C 9 -17.613281 8.9375 -17.109375 8.9375 -16.609375 C 8.9375 -16.234375 9 -15.867188 9.125 -15.515625 C 9.25 -15.160156 9.425781 -14.847656 9.65625 -14.578125 C 9.882812 -14.316406 10.148438 -14.109375 10.453125 -13.953125 C 10.753906 -13.796875 11.082031 -13.71875 11.4375 -13.71875 C 12.71875 -13.71875 13.65625 -14.242188 14.25 -15.296875 L 15.953125 -15.640625 C 16.617188 -15.066406 17.160156 -14.566406 17.578125 -14.140625 C 17.992188 -13.722656 18.3125 -13.332031 18.53125 -12.96875 C 18.75 -12.601562 18.894531 -12.222656 18.96875 -11.828125 C 19.050781 -11.441406 19.09375 -10.984375 19.09375 -10.453125 C 19.09375 -9.578125 18.898438 -8.734375 18.515625 -7.921875 C 18.140625 -7.109375 17.632812 -6.390625 17 -5.765625 C 16.363281 -5.148438 15.632812 -4.65625 14.8125 -4.28125 C 14 -3.914062 13.148438 -3.734375 12.265625 -3.734375 C 10.035156 -3.734375 8.019531 -4.769531 6.21875 -6.84375 C 5.550781 -7.601562 4.941406 -8.390625 4.390625 -9.203125 C 3.835938 -10.015625 3.375 -10.953125 3 -12.015625 C 2.625 -13.085938 2.332031 -14.34375 2.125 -15.78125 C 1.914062 -17.226562 1.8125 -18.960938 1.8125 -20.984375 L 4.171875 -20.984375 C 4.171875 -20.429688 4.171875 -19.921875 4.171875 -19.453125 C 4.179688 -18.984375 4.195312 -18.523438 4.21875 -18.078125 C 4.238281 -17.628906 4.265625 -17.191406 4.296875 -16.765625 C 4.335938 -16.335938 4.390625 -15.890625 4.453125 -15.421875 C 4.617188 -14.191406 4.960938 -13.007812 5.484375 -11.875 C 6.003906 -10.75 6.625 -9.757812 7.34375 -8.90625 C 8.0625 -8.050781 8.84375 -7.367188 9.6875 -6.859375 C 10.539062 -6.347656 11.390625 -6.09375 12.234375 -6.09375 C 12.785156 -6.09375 13.332031 -6.210938 13.875 -6.453125 C 14.414062 -6.691406 14.894531 -7.007812 15.3125 -7.40625 C 15.738281 -7.800781 16.082031 -8.253906 16.34375 -8.765625 C 16.601562 -9.285156 16.734375 -9.820312 16.734375 -10.375 C 16.734375 -11.476562 16.300781 -12.394531 15.4375 -13.125 C 14.863281 -12.5625 14.238281 -12.125 13.5625 -11.8125 C 12.894531 -11.507812 12.160156 -11.359375 11.359375 -11.359375 C 10.671875 -11.359375 10.035156 -11.503906 9.453125 -11.796875 C 8.867188 -12.085938 8.363281 -12.476562 7.9375 -12.96875 C 7.519531 -13.457031 7.1875 -14.015625 6.9375 -14.640625 C 6.695312 -15.265625 6.578125 -15.90625 6.578125 -16.5625 C 6.578125 -19.53125 7.726562 -21.765625 10.03125 -23.265625 L -0.484375 -23.265625 L -0.484375 -25.609375 L 28.609375 -25.609375 L 28.609375 -23.265625 L 13.875 -23.265625 Z M 13.875 -23.359375 "/></g></g></g><g fill="#333594" fill-opacity="1"><g transform="translate(133.101916, 248.809556)"><g><path d="M 5.375 -6.046875 C 4.539062 -6.628906 3.929688 -7.347656 3.546875 -8.203125 C 3.171875 -9.066406 2.984375 -9.96875 2.984375 -10.90625 C 2.984375 -11.820312 3.144531 -12.738281 3.46875 -13.65625 C 3.789062 -14.582031 4.25 -15.40625 4.84375 -16.125 C 5.445312 -16.851562 6.15625 -17.441406 6.96875 -17.890625 C 7.789062 -18.347656 8.710938 -18.578125 9.734375 -18.578125 C 11.222656 -18.578125 12.539062 -18.191406 13.6875 -17.421875 C 14.84375 -16.648438 15.800781 -15.476562 16.5625 -13.90625 L 16.5625 -23.265625 L -1.015625 -23.265625 L -1.015625 -25.609375 L 22.59375 -25.609375 L 22.59375 -23.265625 L 18.90625 -23.265625 L 18.90625 0.078125 L 16.5625 0.078125 L 16.5625 -8.84375 C 16.394531 -9.5625 16.117188 -10.347656 15.734375 -11.203125 C 15.359375 -12.054688 14.894531 -12.851562 14.34375 -13.59375 C 13.789062 -14.34375 13.160156 -14.96875 12.453125 -15.46875 C 11.742188 -15.96875 10.976562 -16.21875 10.15625 -16.21875 C 9.4375 -16.21875 8.78125 -16.078125 8.1875 -15.796875 C 7.601562 -15.523438 7.097656 -15.160156 6.671875 -14.703125 C 6.242188 -14.253906 5.910156 -13.734375 5.671875 -13.140625 C 5.441406 -12.546875 5.328125 -11.945312 5.328125 -11.34375 C 5.328125 -10.707031 5.445312 -10.085938 5.6875 -9.484375 C 5.9375 -8.890625 6.332031 -8.347656 6.875 -7.859375 Z M 5.375 -6.046875 "/></g></g></g><g fill="#333594" fill-opacity="1"><g transform="translate(155.392161, 248.809556)"><g><path d="M -1.234375 -25.609375 L 3.328125 -25.609375 C 3.003906 -27.015625 2.441406 -28.285156 1.640625 -29.421875 C 0.835938 -30.554688 -0.125 -31.519531 -1.25 -32.3125 C -2.375 -33.101562 -3.613281 -33.710938 -4.96875 -34.140625 C -6.332031 -34.566406 -7.710938 -34.78125 -9.109375 -34.78125 C -9.785156 -34.78125 -10.488281 -34.707031 -11.21875 -34.5625 C -11.945312 -34.425781 -12.613281 -34.222656 -13.21875 -33.953125 C -13.832031 -33.691406 -14.332031 -33.390625 -14.71875 -33.046875 C -15.113281 -32.710938 -15.3125 -32.34375 -15.3125 -31.9375 C -15.050781 -31.863281 -14.523438 -31.789062 -13.734375 -31.71875 C -12.941406 -31.644531 -11.890625 -31.582031 -10.578125 -31.53125 C -9.066406 -31.46875 -7.789062 -31.335938 -6.75 -31.140625 C -5.71875 -30.953125 -4.878906 -30.675781 -4.234375 -30.3125 C -3.597656 -29.945312 -3.140625 -29.492188 -2.859375 -28.953125 C -2.585938 -28.421875 -2.453125 -27.78125 -2.453125 -27.03125 C -2.453125 -26.382812 -2.820312 -25.421875 -3.5625 -24.140625 L -5.625 -24.921875 C -5 -25.554688 -4.617188 -26.1875 -4.484375 -26.8125 C -4.566406 -27.238281 -4.722656 -27.601562 -4.953125 -27.90625 C -5.179688 -28.21875 -5.535156 -28.46875 -6.015625 -28.65625 C -6.492188 -28.84375 -7.140625 -28.976562 -7.953125 -29.0625 C -8.765625 -29.144531 -9.800781 -29.1875 -11.0625 -29.1875 C -13.28125 -29.1875 -14.9375 -29.40625 -16.03125 -29.84375 C -17.125 -30.28125 -17.671875 -31.046875 -17.671875 -32.140625 C -17.671875 -32.828125 -17.421875 -33.472656 -16.921875 -34.078125 C -16.429688 -34.679688 -15.785156 -35.210938 -14.984375 -35.671875 C -14.179688 -36.128906 -13.273438 -36.488281 -12.265625 -36.75 C -11.265625 -37.007812 -10.25 -37.140625 -9.21875 -37.140625 C -7.332031 -37.140625 -5.597656 -36.882812 -4.015625 -36.375 C -2.441406 -35.863281 -1.03125 -35.117188 0.21875 -34.140625 C 1.476562 -33.160156 2.5625 -31.957031 3.46875 -30.53125 C 4.382812 -29.101562 5.117188 -27.460938 5.671875 -25.609375 L 9.5 -25.609375 L 9.5 -23.265625 L 5.671875 -23.265625 L 5.671875 0 L 3.328125 0 L 3.328125 -23.265625 L -1.234375 -23.265625 Z M -1.234375 -25.609375 "/></g></g></g><g fill="#333594" fill-opacity="1"><g transform="translate(164.238552, 248.809556)"><g><path d="M 3.328125 0 L 3.328125 -23.265625 L -1.671875 -23.265625 L -1.671875 -25.609375 L 2.6875 -25.609375 L 0.765625 -28.296875 C 0.910156 -29.378906 1.28125 -30.398438 1.875 -31.359375 C 2.46875 -32.328125 3.203125 -33.171875 4.078125 -33.890625 C 4.953125 -34.609375 5.921875 -35.175781 6.984375 -35.59375 C 8.046875 -36.007812 9.128906 -36.21875 10.234375 -36.21875 C 12.929688 -36.21875 15.566406 -35.53125 18.140625 -34.15625 C 19.035156 -33.675781 20.046875 -33.03125 21.171875 -32.21875 C 22.296875 -31.40625 23.539062 -30.414062 24.90625 -29.25 L 23.296875 -27.5 C 21.054688 -29.644531 18.851562 -31.242188 16.6875 -32.296875 C 14.53125 -33.347656 12.40625 -33.875 10.3125 -33.875 C 9.507812 -33.875 8.707031 -33.71875 7.90625 -33.40625 C 7.101562 -33.101562 6.363281 -32.6875 5.6875 -32.15625 C 5.019531 -31.632812 4.445312 -31.023438 3.96875 -30.328125 C 3.5 -29.628906 3.21875 -28.894531 3.125 -28.125 C 3.164062 -28 3.390625 -27.738281 3.796875 -27.34375 C 4.210938 -26.957031 4.742188 -26.378906 5.390625 -25.609375 L 9.75 -25.609375 L 9.75 -23.265625 L 5.65625 -23.265625 L 5.65625 0 Z M 3.328125 0 "/></g></g></g><g fill="#333594" fill-opacity="1"><g transform="translate(173.051754, 248.809556)"><g><path d="M -1.203125 -23.265625 L -1.203125 -25.609375 L 27.734375 -25.609375 L 27.734375 -23.265625 Z M 10.53125 -13.453125 C 10.207031 -14.078125 9.960938 -14.671875 9.796875 -15.234375 C 9.640625 -15.804688 9.5625 -16.332031 9.5625 -16.8125 C 9.5625 -17.476562 9.71875 -18.109375 10.03125 -18.703125 C 10.34375 -19.296875 10.757812 -19.8125 11.28125 -20.25 C 11.800781 -20.695312 12.421875 -21.046875 13.140625 -21.296875 C 13.867188 -21.546875 14.648438 -21.671875 15.484375 -21.671875 C 16.785156 -21.671875 17.9375 -21.378906 18.9375 -20.796875 C 19.9375 -20.210938 20.769531 -19.445312 21.4375 -18.5 C 22.113281 -17.550781 22.625 -16.476562 22.96875 -15.28125 C 23.3125 -14.09375 23.484375 -12.882812 23.484375 -11.65625 C 23.484375 -10.40625 23.300781 -9.179688 22.9375 -7.984375 C 22.582031 -6.796875 22.046875 -5.738281 21.328125 -4.8125 C 20.617188 -3.894531 19.726562 -3.148438 18.65625 -2.578125 C 17.59375 -2.015625 16.363281 -1.734375 14.96875 -1.734375 C 13.414062 -1.734375 12.066406 -1.984375 10.921875 -2.484375 C 9.785156 -2.992188 8.800781 -3.6875 7.96875 -4.5625 C 7.144531 -5.4375 6.453125 -6.453125 5.890625 -7.609375 C 5.335938 -8.765625 4.867188 -9.988281 4.484375 -11.28125 C 4.097656 -12.570312 3.769531 -13.894531 3.5 -15.25 C 3.238281 -16.613281 2.992188 -17.9375 2.765625 -19.21875 L 2.578125 -20.375 L 4.9375 -20.375 L 5.140625 -19.09375 C 5.347656 -17.988281 5.5625 -16.847656 5.78125 -15.671875 C 6 -14.492188 6.265625 -13.347656 6.578125 -12.234375 C 6.898438 -11.128906 7.285156 -10.082031 7.734375 -9.09375 C 8.179688 -8.101562 8.722656 -7.234375 9.359375 -6.484375 C 9.992188 -5.742188 10.738281 -5.15625 11.59375 -4.71875 C 12.457031 -4.289062 13.460938 -4.078125 14.609375 -4.078125 C 15.722656 -4.078125 16.691406 -4.289062 17.515625 -4.71875 C 18.347656 -5.15625 19.03125 -5.726562 19.5625 -6.4375 C 20.101562 -7.144531 20.5 -7.953125 20.75 -8.859375 C 21.007812 -9.773438 21.140625 -10.707031 21.140625 -11.65625 C 21.140625 -12.59375 21.015625 -13.519531 20.765625 -14.4375 C 20.515625 -15.363281 20.148438 -16.1875 19.671875 -16.90625 C 19.191406 -17.625 18.597656 -18.207031 17.890625 -18.65625 C 17.191406 -19.101562 16.390625 -19.328125 15.484375 -19.328125 C 15.046875 -19.328125 14.617188 -19.25 14.203125 -19.09375 C 13.785156 -18.945312 13.40625 -18.734375 13.0625 -18.453125 C 12.71875 -18.179688 12.441406 -17.851562 12.234375 -17.46875 C 12.023438 -17.09375 11.921875 -16.671875 11.921875 -16.203125 C 11.921875 -15.992188 11.96875 -15.753906 12.0625 -15.484375 C 12.15625 -15.222656 12.304688 -14.925781 12.515625 -14.59375 Z M 10.53125 -13.453125 "/></g></g></g><g fill="#333594" fill-opacity="1"><g transform="translate(199.773484, 248.809556)"><g/></g></g><g fill="#333594" fill-opacity="1"><g transform="translate(212.121913, 248.809556)"><g><path d="M 23.9375 0 L 21.59375 0 C 21.5625 -1.164062 21.410156 -2.144531 21.140625 -2.9375 C 20.867188 -3.726562 20.460938 -4.363281 19.921875 -4.84375 C 19.390625 -5.332031 18.710938 -5.679688 17.890625 -5.890625 C 17.078125 -6.109375 16.101562 -6.21875 14.96875 -6.21875 C 14.78125 -6.21875 14.492188 -6.203125 14.109375 -6.171875 C 13.722656 -6.148438 13.296875 -6.125 12.828125 -6.09375 C 12.359375 -6.0625 11.878906 -6.03125 11.390625 -6 C 10.898438 -5.96875 10.460938 -5.953125 10.078125 -5.953125 C 8.710938 -5.953125 7.554688 -6.097656 6.609375 -6.390625 C 5.660156 -6.691406 4.882812 -7.148438 4.28125 -7.765625 C 3.675781 -8.390625 3.234375 -9.1875 2.953125 -10.15625 C 2.679688 -11.125 2.546875 -12.28125 2.546875 -13.625 C 2.546875 -14.601562 2.648438 -15.539062 2.859375 -16.4375 C 3.066406 -17.332031 3.34375 -18.203125 3.6875 -19.046875 L 5.71875 -17.953125 C 5.414062 -16.898438 5.195312 -15.9375 5.0625 -15.0625 C 4.9375 -14.195312 4.875 -13.425781 4.875 -12.75 C 4.875 -11.914062 4.984375 -11.210938 5.203125 -10.640625 C 5.421875 -10.078125 5.773438 -9.625 6.265625 -9.28125 C 6.765625 -8.9375 7.421875 -8.6875 8.234375 -8.53125 C 9.054688 -8.382812 10.0625 -8.3125 11.25 -8.3125 C 12.132812 -8.3125 12.992188 -8.363281 13.828125 -8.46875 C 14.671875 -8.582031 15.515625 -8.640625 16.359375 -8.640625 C 17.253906 -8.640625 18.148438 -8.5 19.046875 -8.21875 C 19.953125 -7.945312 20.800781 -7.425781 21.59375 -6.65625 L 21.59375 -22.21875 C 21.59375 -22.445312 21.53125 -22.660156 21.40625 -22.859375 C 21.289062 -23.066406 21.132812 -23.242188 20.9375 -23.390625 C 20.75 -23.535156 20.535156 -23.644531 20.296875 -23.71875 C 20.066406 -23.800781 19.84375 -23.84375 19.625 -23.84375 C 19.3125 -23.84375 18.921875 -23.710938 18.453125 -23.453125 C 17.984375 -23.191406 17.484375 -22.851562 16.953125 -22.4375 C 16.421875 -22.03125 15.882812 -21.566406 15.34375 -21.046875 C 14.800781 -20.535156 14.316406 -20.015625 13.890625 -19.484375 C 13.460938 -18.960938 13.113281 -18.460938 12.84375 -17.984375 C 12.582031 -17.515625 12.453125 -17.125 12.453125 -16.8125 C 12.453125 -16.195312 12.753906 -15.890625 13.359375 -15.890625 C 13.617188 -15.890625 13.894531 -15.96875 14.1875 -16.125 L 15.203125 -14.40625 C 14.492188 -13.90625 13.8125 -13.65625 13.15625 -13.65625 C 12.71875 -13.65625 12.316406 -13.738281 11.953125 -13.90625 C 11.597656 -14.070312 11.289062 -14.289062 11.03125 -14.5625 C 10.78125 -14.84375 10.578125 -15.171875 10.421875 -15.546875 C 10.273438 -15.929688 10.203125 -16.335938 10.203125 -16.765625 C 10.203125 -17.328125 10.351562 -17.953125 10.65625 -18.640625 C 10.96875 -19.328125 11.375 -20.019531 11.875 -20.71875 C 12.382812 -21.425781 12.96875 -22.109375 13.625 -22.765625 C 14.289062 -23.421875 14.976562 -24.003906 15.6875 -24.515625 C 16.394531 -25.023438 17.101562 -25.429688 17.8125 -25.734375 C 18.519531 -26.046875 19.1875 -26.203125 19.8125 -26.203125 C 20.3125 -26.203125 20.804688 -26.109375 21.296875 -25.921875 C 21.796875 -25.734375 22.238281 -25.472656 22.625 -25.140625 C 23.007812 -24.816406 23.320312 -24.4375 23.5625 -24 C 23.8125 -23.570312 23.9375 -23.101562 23.9375 -22.59375 Z M 23.9375 0 "/></g></g></g><g fill="#333594" fill-opacity="1"><g transform="translate(239.391364, 248.809556)"><g><path d="M 20.453125 -10 C 18.847656 -7.757812 17.035156 -6.640625 15.015625 -6.640625 C 13.785156 -6.640625 12.65625 -6.84375 11.625 -7.25 C 10.59375 -7.65625 9.648438 -8.203125 8.796875 -8.890625 C 7.941406 -9.578125 7.175781 -10.394531 6.5 -11.34375 C 5.820312 -12.289062 5.21875 -13.304688 4.6875 -14.390625 C 4.15625 -15.472656 3.695312 -16.601562 3.3125 -17.78125 C 2.925781 -18.957031 2.609375 -20.125 2.359375 -21.28125 L 4.71875 -22.03125 C 4.914062 -21.125 5.164062 -20.171875 5.46875 -19.171875 C 5.769531 -18.171875 6.140625 -17.1875 6.578125 -16.21875 C 7.023438 -15.257812 7.523438 -14.34375 8.078125 -13.46875 C 8.640625 -12.59375 9.257812 -11.820312 9.9375 -11.15625 C 10.625 -10.488281 11.367188 -9.957031 12.171875 -9.5625 C 12.984375 -9.175781 13.863281 -8.984375 14.8125 -8.984375 C 15.445312 -8.984375 16.03125 -9.113281 16.5625 -9.375 C 17.101562 -9.644531 17.566406 -10.003906 17.953125 -10.453125 C 18.335938 -10.898438 18.632812 -11.410156 18.84375 -11.984375 C 19.0625 -12.566406 19.171875 -13.1875 19.171875 -13.84375 C 19.171875 -14.425781 19.039062 -15.035156 18.78125 -15.671875 C 18.53125 -16.316406 18.1875 -16.90625 17.75 -17.4375 C 17.320312 -17.96875 16.820312 -18.394531 16.25 -18.71875 C 15.675781 -19.050781 15.070312 -19.21875 14.4375 -19.21875 C 13.84375 -19.21875 13.328125 -18.992188 12.890625 -18.546875 C 12.460938 -18.097656 12.125 -17.40625 11.875 -16.46875 L 9.71875 -16.953125 C 10.320312 -20.035156 11.894531 -21.578125 14.4375 -21.578125 C 15.332031 -21.578125 16.207031 -21.347656 17.0625 -20.890625 C 17.914062 -20.441406 18.671875 -19.859375 19.328125 -19.140625 C 19.992188 -18.421875 20.523438 -17.613281 20.921875 -16.71875 C 21.328125 -15.820312 21.53125 -14.929688 21.53125 -14.046875 C 21.53125 -13.847656 21.515625 -13.640625 21.484375 -13.421875 C 21.453125 -13.210938 21.410156 -13.003906 21.359375 -12.796875 L 24.21875 -8.640625 L 24.21875 -23.265625 L -0.234375 -23.265625 L -0.234375 -25.609375 L 29.421875 -25.609375 C 29.640625 -25.472656 29.84375 -25.332031 30.03125 -25.1875 C 30.226562 -25.039062 30.429688 -24.867188 30.640625 -24.671875 C 30.847656 -24.484375 31.066406 -24.257812 31.296875 -24 C 31.523438 -23.738281 31.78125 -23.421875 32.0625 -23.046875 L 32.0625 -29.140625 L 34.421875 -29.140625 L 34.421875 -25.609375 L 37.796875 -25.609375 L 37.796875 -23.265625 L 34.421875 -23.265625 L 34.421875 0 L 32.0625 0 L 32.0625 -19.875 C 31.757812 -20.675781 31.316406 -21.375 30.734375 -21.96875 C 30.148438 -22.570312 29.46875 -23.003906 28.6875 -23.265625 L 26.5625 -23.265625 L 26.5625 0 L 24.21875 0 L 24.21875 -4.21875 Z M 20.453125 -10 "/></g></g></g><g fill="#333594" fill-opacity="1"><g transform="translate(277.133735, 248.809556)"><g><path d="M 20.953125 2.296875 C 19.898438 1.328125 18.914062 0.4375 18 -0.375 C 17.082031 -1.1875 16.179688 -1.9375 15.296875 -2.625 C 14.410156 -3.320312 13.523438 -3.96875 12.640625 -4.5625 C 11.753906 -5.164062 10.832031 -5.726562 9.875 -6.25 C 8.914062 -6.78125 7.898438 -7.28125 6.828125 -7.75 C 5.765625 -8.21875 4.613281 -8.664062 3.375 -9.09375 L 2 -11.921875 C 2.507812 -11.773438 3.0625 -11.609375 3.65625 -11.421875 C 4.257812 -11.242188 4.867188 -11.078125 5.484375 -10.921875 C 6.097656 -10.765625 6.695312 -10.632812 7.28125 -10.53125 C 7.863281 -10.425781 8.394531 -10.375 8.875 -10.375 C 9.625 -10.375 10.375 -10.46875 11.125 -10.65625 C 11.875 -10.84375 12.550781 -11.128906 13.15625 -11.515625 C 13.757812 -11.910156 14.25 -12.398438 14.625 -12.984375 C 15.007812 -13.578125 15.203125 -14.269531 15.203125 -15.0625 C 15.203125 -15.65625 15.101562 -16.226562 14.90625 -16.78125 C 14.707031 -17.332031 14.421875 -17.8125 14.046875 -18.21875 C 13.671875 -18.632812 13.222656 -18.96875 12.703125 -19.21875 C 12.191406 -19.46875 11.617188 -19.59375 10.984375 -19.59375 C 10.378906 -19.59375 9.835938 -19.472656 9.359375 -19.234375 C 8.890625 -19.003906 8.46875 -18.71875 8.09375 -18.375 C 7.71875 -18.03125 7.410156 -17.65625 7.171875 -17.25 C 6.929688 -16.851562 6.742188 -16.476562 6.609375 -16.125 L 4.25 -16.953125 C 4.351562 -17.566406 4.632812 -18.171875 5.09375 -18.765625 C 5.550781 -19.367188 6.085938 -19.90625 6.703125 -20.375 C 7.328125 -20.84375 7.992188 -21.222656 8.703125 -21.515625 C 9.421875 -21.804688 10.09375 -21.953125 10.71875 -21.953125 L 10.78125 -21.953125 C 11.726562 -21.929688 12.613281 -21.726562 13.4375 -21.34375 C 14.269531 -20.957031 14.992188 -20.441406 15.609375 -19.796875 C 16.222656 -19.148438 16.703125 -18.398438 17.046875 -17.546875 C 17.390625 -16.703125 17.5625 -15.8125 17.5625 -14.875 C 17.5625 -13.195312 17.015625 -11.816406 15.921875 -10.734375 C 14.835938 -9.648438 13.210938 -8.863281 11.046875 -8.375 C 13.566406 -7.09375 17.328125 -4.050781 22.328125 0.75 Z M 23.015625 -23.265625 L -0.296875 -23.265625 L -0.296875 -25.609375 L 15.5 -25.609375 C 15.820312 -26.128906 15.984375 -26.617188 15.984375 -27.078125 C 15.984375 -27.421875 15.882812 -27.71875 15.6875 -27.96875 C 15.5 -28.226562 15.226562 -28.4375 14.875 -28.59375 C 14.53125 -28.757812 14.113281 -28.882812 13.625 -28.96875 C 13.144531 -29.050781 12.617188 -29.09375 12.046875 -29.09375 C 11.546875 -29.09375 11.019531 -29.066406 10.46875 -29.015625 C 9.914062 -28.972656 9.367188 -28.929688 8.828125 -28.890625 C 8.285156 -28.847656 7.753906 -28.800781 7.234375 -28.75 C 6.722656 -28.707031 6.242188 -28.6875 5.796875 -28.6875 L 5 -28.734375 C 4.144531 -28.734375 3.359375 -28.847656 2.640625 -29.078125 C 1.921875 -29.316406 1.296875 -29.640625 0.765625 -30.046875 C 0.234375 -30.453125 -0.175781 -30.929688 -0.46875 -31.484375 C -0.757812 -32.046875 -0.90625 -32.644531 -0.90625 -33.28125 C -0.90625 -33.675781 -0.847656 -34.117188 -0.734375 -34.609375 C -0.617188 -35.109375 -0.457031 -35.660156 -0.25 -36.265625 L 1.9375 -35.53125 C 1.582031 -34.46875 1.40625 -33.765625 1.40625 -33.421875 C 1.40625 -32.492188 1.789062 -31.859375 2.5625 -31.515625 C 3.332031 -31.179688 4.507812 -31.015625 6.09375 -31.015625 C 6.570312 -31.015625 7.070312 -31.035156 7.59375 -31.078125 C 8.113281 -31.128906 8.644531 -31.179688 9.1875 -31.234375 C 9.726562 -31.285156 10.257812 -31.332031 10.78125 -31.375 C 11.3125 -31.414062 11.84375 -31.4375 12.375 -31.4375 C 13.1875 -31.4375 13.953125 -31.347656 14.671875 -31.171875 C 15.398438 -30.992188 16.03125 -30.734375 16.5625 -30.390625 C 17.09375 -30.054688 17.507812 -29.632812 17.8125 -29.125 C 18.125 -28.613281 18.28125 -28.023438 18.28125 -27.359375 C 18.28125 -27.078125 18.25 -26.789062 18.1875 -26.5 C 18.125 -26.207031 18.050781 -25.910156 17.96875 -25.609375 L 23.015625 -25.609375 Z M 23.015625 -23.265625 "/></g></g></g><g fill="#333594" fill-opacity="1"><g transform="translate(66.070995, 300.319232)"><g><path d="M 16.546875 -41 C 22.628906 -41 27.289062 -39.914062 30.53125 -37.75 C 33.769531 -35.582031 35.390625 -32.21875 35.390625 -27.65625 C 35.390625 -24.8125 34.734375 -22.503906 33.421875 -20.734375 C 32.117188 -18.960938 30.238281 -17.566406 27.78125 -16.546875 C 28.601562 -15.535156 29.460938 -14.375 30.359375 -13.0625 C 31.253906 -11.757812 32.140625 -10.394531 33.015625 -8.96875 C 33.890625 -7.550781 34.734375 -6.070312 35.546875 -4.53125 C 36.367188 -2.988281 37.132812 -1.476562 37.84375 0 L 27.609375 0 C 26.867188 -1.320312 26.117188 -2.664062 25.359375 -4.03125 C 24.597656 -5.394531 23.816406 -6.71875 23.015625 -8 C 22.210938 -9.289062 21.421875 -10.507812 20.640625 -11.65625 C 19.859375 -12.8125 19.082031 -13.859375 18.3125 -14.796875 L 13.796875 -14.796875 L 13.796875 0 L 4.671875 0 L 4.671875 -39.9375 C 6.660156 -40.332031 8.71875 -40.609375 10.84375 -40.765625 C 12.96875 -40.921875 14.867188 -41 16.546875 -41 Z M 17.078125 -33.21875 C 16.410156 -33.21875 15.8125 -33.195312 15.28125 -33.15625 C 14.757812 -33.125 14.265625 -33.085938 13.796875 -33.046875 L 13.796875 -22.046875 L 16.375 -22.046875 C 19.800781 -22.046875 22.253906 -22.472656 23.734375 -23.328125 C 25.222656 -24.191406 25.96875 -25.65625 25.96875 -27.71875 C 25.96875 -29.707031 25.21875 -31.117188 23.71875 -31.953125 C 22.21875 -32.796875 20.003906 -33.21875 17.078125 -33.21875 Z M 17.078125 -33.21875 "/></g></g></g><g fill="#333594" fill-opacity="1"><g transform="translate(105.081644, 300.319232)"><g><path d="M 15.84375 -6.078125 C 16.707031 -6.078125 17.523438 -6.097656 18.296875 -6.140625 C 19.078125 -6.179688 19.703125 -6.238281 20.171875 -6.3125 L 20.171875 -12.921875 C 19.828125 -13.003906 19.300781 -13.082031 18.59375 -13.15625 C 17.894531 -13.238281 17.253906 -13.28125 16.671875 -13.28125 C 15.847656 -13.28125 15.078125 -13.226562 14.359375 -13.125 C 13.640625 -13.03125 13.003906 -12.847656 12.453125 -12.578125 C 11.910156 -12.304688 11.484375 -11.9375 11.171875 -11.46875 C 10.859375 -11 10.703125 -10.410156 10.703125 -9.703125 C 10.703125 -8.335938 11.160156 -7.390625 12.078125 -6.859375 C 12.992188 -6.335938 14.25 -6.078125 15.84375 -6.078125 Z M 15.140625 -31.578125 C 17.710938 -31.578125 19.859375 -31.285156 21.578125 -30.703125 C 23.296875 -30.117188 24.671875 -29.28125 25.703125 -28.1875 C 26.734375 -27.09375 27.460938 -25.765625 27.890625 -24.203125 C 28.328125 -22.648438 28.546875 -20.914062 28.546875 -19 L 28.546875 -0.875 C 27.296875 -0.601562 25.554688 -0.285156 23.328125 0.078125 C 21.109375 0.453125 18.421875 0.640625 15.265625 0.640625 C 13.273438 0.640625 11.46875 0.460938 9.84375 0.109375 C 8.226562 -0.234375 6.835938 -0.804688 5.671875 -1.609375 C 4.503906 -2.410156 3.609375 -3.453125 2.984375 -4.734375 C 2.359375 -6.023438 2.046875 -7.601562 2.046875 -9.46875 C 2.046875 -11.269531 2.40625 -12.789062 3.125 -14.03125 C 3.84375 -15.28125 4.804688 -16.273438 6.015625 -17.015625 C 7.234375 -17.753906 8.617188 -18.289062 10.171875 -18.625 C 11.734375 -18.957031 13.351562 -19.125 15.03125 -19.125 C 16.15625 -19.125 17.15625 -19.070312 18.03125 -18.96875 C 18.914062 -18.875 19.628906 -18.75 20.171875 -18.59375 L 20.171875 -19.421875 C 20.171875 -20.898438 19.722656 -22.085938 18.828125 -22.984375 C 17.929688 -23.878906 16.375 -24.328125 14.15625 -24.328125 C 12.675781 -24.328125 11.210938 -24.21875 9.765625 -24 C 8.328125 -23.789062 7.082031 -23.488281 6.03125 -23.09375 L 4.90625 -30.125 C 5.414062 -30.28125 6.050781 -30.441406 6.8125 -30.609375 C 7.570312 -30.785156 8.398438 -30.941406 9.296875 -31.078125 C 10.191406 -31.222656 11.132812 -31.34375 12.125 -31.4375 C 13.125 -31.53125 14.128906 -31.578125 15.140625 -31.578125 Z M 15.140625 -31.578125 "/></g></g></g><g fill="#333594" fill-opacity="1"><g transform="translate(137.424809, 300.319232)"><g><path d="M 1.234375 10.8125 C 0.679688 10.8125 -0.128906 10.753906 -1.203125 10.640625 C -2.273438 10.523438 -3.273438 10.3125 -4.203125 10 L -3.046875 2.921875 C -2.453125 3.117188 -1.910156 3.253906 -1.421875 3.328125 C -0.941406 3.410156 -0.332031 3.453125 0.40625 3.453125 C 1.769531 3.453125 2.722656 3.039062 3.265625 2.21875 C 3.816406 1.40625 4.09375 0.21875 4.09375 -1.34375 L 4.09375 -30.765625 L 12.8125 -30.765625 L 12.8125 -1.109375 C 12.8125 2.941406 11.816406 5.941406 9.828125 7.890625 C 7.835938 9.835938 4.972656 10.8125 1.234375 10.8125 Z M 13.625 -39.65625 C 13.625 -38.050781 13.109375 -36.789062 12.078125 -35.875 C 11.046875 -34.957031 9.828125 -34.5 8.421875 -34.5 C 7.015625 -34.5 5.796875 -34.957031 4.765625 -35.875 C 3.734375 -36.789062 3.21875 -38.050781 3.21875 -39.65625 C 3.21875 -41.25 3.734375 -42.503906 4.765625 -43.421875 C 5.796875 -44.335938 7.015625 -44.796875 8.421875 -44.796875 C 9.828125 -44.796875 11.046875 -44.335938 12.078125 -43.421875 C 13.109375 -42.503906 13.625 -41.25 13.625 -39.65625 Z M 13.625 -39.65625 "/></g></g></g><g fill="#333594" fill-opacity="1"><g transform="translate(154.327479, 300.319232)"><g><path d="M 4.09375 -29.703125 C 5.570312 -30.140625 7.476562 -30.539062 9.8125 -30.90625 C 12.15625 -31.28125 14.613281 -31.46875 17.1875 -31.46875 C 19.800781 -31.46875 21.972656 -31.125 23.703125 -30.4375 C 25.441406 -29.757812 26.816406 -28.796875 27.828125 -27.546875 C 28.847656 -26.296875 29.570312 -24.8125 30 -23.09375 C 30.425781 -21.382812 30.640625 -19.476562 30.640625 -17.375 L 30.640625 0 L 21.9375 0 L 21.9375 -16.3125 C 21.9375 -19.125 21.5625 -21.113281 20.8125 -22.28125 C 20.070312 -23.445312 18.691406 -24.03125 16.671875 -24.03125 C 16.046875 -24.03125 15.378906 -24 14.671875 -23.9375 C 13.972656 -23.882812 13.351562 -23.820312 12.8125 -23.75 L 12.8125 0 L 4.09375 0 Z M 4.09375 -29.703125 "/></g></g></g><g fill="#333594" fill-opacity="1"><g transform="translate(188.776174, 300.319232)"><g><path d="M 12.8125 0 L 4.09375 0 L 4.09375 -30.765625 L 12.8125 -30.765625 Z M 13.625 -39.65625 C 13.625 -38.050781 13.109375 -36.789062 12.078125 -35.875 C 11.046875 -34.957031 9.828125 -34.5 8.421875 -34.5 C 7.015625 -34.5 5.796875 -34.957031 4.765625 -35.875 C 3.734375 -36.789062 3.21875 -38.050781 3.21875 -39.65625 C 3.21875 -41.25 3.734375 -42.503906 4.765625 -43.421875 C 5.796875 -44.335938 7.015625 -44.796875 8.421875 -44.796875 C 9.828125 -44.796875 11.046875 -44.335938 12.078125 -43.421875 C 13.109375 -42.503906 13.625 -41.25 13.625 -39.65625 Z M 13.625 -39.65625 "/></g></g></g><g fill="#333594" fill-opacity="1"><g transform="translate(205.678844, 300.319232)"><g><path d="M 3.796875 -38.421875 L 12.515625 -39.828125 L 12.515625 -30.765625 L 22.984375 -30.765625 L 22.984375 -23.515625 L 12.515625 -23.515625 L 12.515625 -12.6875 C 12.515625 -10.851562 12.835938 -9.390625 13.484375 -8.296875 C 14.128906 -7.210938 15.425781 -6.671875 17.375 -6.671875 C 18.3125 -6.671875 19.273438 -6.753906 20.265625 -6.921875 C 21.253906 -7.097656 22.160156 -7.34375 22.984375 -7.65625 L 24.21875 -0.875 C 23.164062 -0.445312 21.992188 -0.078125 20.703125 0.234375 C 19.421875 0.546875 17.84375 0.703125 15.96875 0.703125 C 13.59375 0.703125 11.625 0.378906 10.0625 -0.265625 C 8.5 -0.910156 7.25 -1.804688 6.3125 -2.953125 C 5.375 -4.097656 4.71875 -5.488281 4.34375 -7.125 C 3.976562 -8.769531 3.796875 -10.585938 3.796875 -12.578125 Z M 3.796875 -38.421875 "/></g></g></g><g fill="#333594" fill-opacity="1"><g transform="translate(231.646951, 300.319232)"><g><path d="M 12.8125 0 L 4.09375 0 L 4.09375 -30.765625 L 12.8125 -30.765625 Z M 13.625 -39.65625 C 13.625 -38.050781 13.109375 -36.789062 12.078125 -35.875 C 11.046875 -34.957031 9.828125 -34.5 8.421875 -34.5 C 7.015625 -34.5 5.796875 -34.957031 4.765625 -35.875 C 3.734375 -36.789062 3.21875 -38.050781 3.21875 -39.65625 C 3.21875 -41.25 3.734375 -42.503906 4.765625 -43.421875 C 5.796875 -44.335938 7.015625 -44.796875 8.421875 -44.796875 C 9.828125 -44.796875 11.046875 -44.335938 12.078125 -43.421875 C 13.109375 -42.503906 13.625 -41.25 13.625 -39.65625 Z M 13.625 -39.65625 "/></g></g></g><g fill="#333594" fill-opacity="1"><g transform="translate(248.549621, 300.319232)"><g><path d="M 31.8125 0 C 31.382812 -1.40625 30.90625 -2.847656 30.375 -4.328125 C 29.851562 -5.804688 29.335938 -7.285156 28.828125 -8.765625 L 13.046875 -8.765625 C 12.535156 -7.285156 12.015625 -5.804688 11.484375 -4.328125 C 10.960938 -2.847656 10.488281 -1.40625 10.0625 0 L 0.578125 0 C 2.097656 -4.363281 3.539062 -8.394531 4.90625 -12.09375 C 6.269531 -15.800781 7.601562 -19.289062 8.90625 -22.5625 C 10.21875 -25.84375 11.503906 -28.953125 12.765625 -31.890625 C 14.035156 -34.835938 15.351562 -37.71875 16.71875 -40.53125 L 25.4375 -40.53125 C 26.757812 -37.71875 28.066406 -34.835938 29.359375 -31.890625 C 30.648438 -28.953125 31.945312 -25.84375 33.25 -22.5625 C 34.550781 -19.289062 35.882812 -15.800781 37.25 -12.09375 C 38.613281 -8.394531 40.054688 -4.363281 41.578125 0 Z M 20.875 -31.34375 C 20.6875 -30.757812 20.394531 -29.957031 20 -28.9375 C 19.613281 -27.925781 19.164062 -26.757812 18.65625 -25.4375 C 18.144531 -24.113281 17.585938 -22.648438 16.984375 -21.046875 C 16.378906 -19.453125 15.765625 -17.78125 15.140625 -16.03125 L 26.671875 -16.03125 C 26.046875 -17.78125 25.441406 -19.453125 24.859375 -21.046875 C 24.273438 -22.648438 23.71875 -24.113281 23.1875 -25.4375 C 22.664062 -26.757812 22.207031 -27.925781 21.8125 -28.9375 C 21.425781 -29.957031 21.113281 -30.757812 20.875 -31.34375 Z M 20.875 -31.34375 "/></g></g></g><g fill="#333594" fill-opacity="1"><g transform="translate(290.718556, 300.319232)"><g><path d="M 4.671875 -40.53125 L 13.796875 -40.53125 L 13.796875 0 L 4.671875 0 Z M 4.671875 -40.53125 "/></g></g></g></svg>
